<?xml version="1.0" encoding="utf-8"?>
<!-- Generator: Adobe Illustrator 25.0.1, SVG Export Plug-In . SVG Version: 6.00 Build 0)  -->
<svg version="1.1" id="Capa_1" xmlns="http://www.w3.org/2000/svg" xmlns:xlink="http://www.w3.org/1999/xlink" x="0px" y="0px"
	 viewBox="0 0 132.3 60" style="enable-background:new 0 0 132.3 60;" xml:space="preserve">
<style type="text/css">
	.st0{fill:none;}
	.st1{fill:#F00000;}
	.st2{fill:#FFFFFF;}
</style>
<rect y="0" class="st0" width="132.3" height="60"/>
<rect class="st1" width="102" height="60"/>
<polygon class="st2" points="18.8,17.8 12.7,17.8 12.7,43 29.7,43 29.7,37.4 18.8,37.4 "/>
<rect x="33.7" y="17.8" class="st2" width="6.1" height="25.2"/>
<polygon class="st2" points="55.9,35.9 55.6,35.9 55.6,35.8 49.3,17.8 43.1,17.8 52.4,43 59.1,43 68.4,17.8 62.2,17.8 "/>
<polygon class="st2" points="71.7,43 89.3,43 89.3,37.9 77.7,37.9 77.7,32.6 88.6,32.6 88.6,27.6 77.7,27.6 77.7,22.8 89.3,22.8 
	89.3,17.8 71.7,17.8 "/>
</svg>
