<?xml version="1.0" encoding="utf-8"?>
<!-- Generator: Adobe Illustrator 25.0.1, SVG Export Plug-In . SVG Version: 6.00 Build 0)  -->
<svg version="1.1" id="Capa_1" xmlns="http://www.w3.org/2000/svg" xmlns:xlink="http://www.w3.org/1999/xlink" x="0px" y="0px"
	 viewBox="0 0 132.3 60" style="enable-background:new 0 0 132.3 60;" xml:space="preserve">
<style type="text/css">
	.st0{fill:none;}
	.st1{fill:#F00000;}
	.st2{fill:#FFFFFF;}
</style>
<rect x="0.3" y="0.5" class="st0" width="132.3" height="60"/>
<rect class="st1" width="103" height="60"/>
<path class="st2" d="M12.9,17.8v3.9h6.4V30c-2.1,0.2-3.4,0.8-3.4,2.7c0,2.3,2.4,4.2,4.6,5.8h3.2V34h8.1v9h4.5V21.6h5.9v21.3h4.5
	V21.6h14.9V24h-3.9c-3.7,0-6.1,1.5-6.1,4.5c0,3.1,2.6,5.7,6.9,5.7c0.8,0,2.4-0.1,2.9-0.1c0.8-0.1,1.6,0.5,1.7,1.4c0,0.1,0,0.2,0,0.3
	c0,1.9-2.4,2.8-4.3,3c-0.9-1.5-2.5-2.4-4.2-2.5c-1.5-0.1-2.8,1-3,2.5c0,0.1,0,0.2,0,0.3c0,2.5,2.8,3.9,5.8,4c1.7,2,3.7,3.7,5.9,5.1
	l2.3-2.8c-1.4-0.9-2.7-1.9-4-3c3.5-0.9,5.1-3,5.3-5.4c0.6,0,1.4,0,2.1,0c0.8,0,1.5-0.1,2.3-0.2v6.1h4.5V21.6h5.9v21.3H86V21.6h4.4
	v-3.9L12.9,17.8L12.9,17.8z M31.9,30h-8.1v-8.4h8.1V30z M71.3,32.7C70.2,32.9,69.1,33,68,33c-0.7,0-1.3,0-2-0.1
	c-1.1-1.7-3-2.6-5-2.5c-0.8,0-2.5,0.1-3.1,0.1c-1.3,0-2-0.5-2-1.4s0.9-1.5,2.6-1.5H66v-6h5.3V32.7z"/>
</svg>
